<mxfile host="app.diagrams.net" modified="2023-01-26T11:00:32.060Z" agent="5.0 (Macintosh; Intel Mac OS X 10_15_7) AppleWebKit/605.1.15 (KHTML, like Gecko) Version/16.1 Safari/605.1.15" etag="RN6zz0QbZ0C8JKpWcz_J" version="20.8.11" type="github">
  <diagram name="Page-1" id="74e2e168-ea6b-b213-b513-2b3c1d86103e">
    <mxGraphModel dx="1434" dy="887" grid="1" gridSize="10" guides="1" tooltips="1" connect="1" arrows="1" fold="1" page="1" pageScale="1" pageWidth="1100" pageHeight="850" background="none" math="0" shadow="0">
      <root>
        <mxCell id="0" />
        <mxCell id="1" parent="0" />
        <mxCell id="77e6c97f196da883-1" value="Pool" style="swimlane;html=1;childLayout=stackLayout;startSize=20;rounded=0;shadow=0;labelBackgroundColor=none;strokeWidth=1;fontFamily=Verdana;fontSize=8;align=center;" parent="1" vertex="1">
          <mxGeometry x="70" y="40" width="640" height="750" as="geometry">
            <mxRectangle x="70" y="40" width="60" height="20" as="alternateBounds" />
          </mxGeometry>
        </mxCell>
        <mxCell id="77e6c97f196da883-2" value="Draft" style="swimlane;html=1;startSize=20;" parent="77e6c97f196da883-1" vertex="1">
          <mxGeometry y="20" width="160" height="730" as="geometry" />
        </mxCell>
        <mxCell id="77e6c97f196da883-8" value="" style="rounded=1;whiteSpace=wrap;html=1;shadow=0;labelBackgroundColor=none;strokeWidth=1;fontFamily=Verdana;fontSize=8;align=center;" parent="77e6c97f196da883-2" vertex="1">
          <mxGeometry x="20" y="65" width="100" height="60" as="geometry" />
        </mxCell>
        <mxCell id="VV6RDWOt5vz2KFIf3M-o-30" value="" style="rounded=1;whiteSpace=wrap;html=1;shadow=0;labelBackgroundColor=none;strokeWidth=1;fontFamily=Verdana;fontSize=8;align=center;" vertex="1" parent="77e6c97f196da883-2">
          <mxGeometry x="20" y="360" width="100" height="60" as="geometry" />
        </mxCell>
        <mxCell id="77e6c97f196da883-3" value="Waiting" style="swimlane;html=1;startSize=20;" parent="77e6c97f196da883-1" vertex="1">
          <mxGeometry x="160" y="20" width="160" height="730" as="geometry" />
        </mxCell>
        <mxCell id="VV6RDWOt5vz2KFIf3M-o-1" value="LOA" style="whiteSpace=wrap;html=1;aspect=fixed;fillColor=#f5f5f5;fontColor=#333333;strokeColor=#666666;" vertex="1" parent="77e6c97f196da883-3">
          <mxGeometry x="40" y="55" width="80" height="80" as="geometry" />
        </mxCell>
        <mxCell id="VV6RDWOt5vz2KFIf3M-o-31" value="LOA" style="whiteSpace=wrap;html=1;aspect=fixed;fillColor=#f5f5f5;fontColor=#333333;strokeColor=#666666;" vertex="1" parent="77e6c97f196da883-3">
          <mxGeometry x="40" y="350" width="80" height="80" as="geometry" />
        </mxCell>
        <mxCell id="77e6c97f196da883-4" value="In Review" style="swimlane;html=1;startSize=20;" parent="77e6c97f196da883-1" vertex="1">
          <mxGeometry x="320" y="20" width="160" height="730" as="geometry" />
        </mxCell>
        <mxCell id="VV6RDWOt5vz2KFIf3M-o-3" value="checker" style="ellipse;whiteSpace=wrap;html=1;aspect=fixed;fillColor=#ffe6cc;strokeColor=#d79b00;" vertex="1" parent="77e6c97f196da883-4">
          <mxGeometry x="40" y="55" width="80" height="80" as="geometry" />
        </mxCell>
        <mxCell id="VV6RDWOt5vz2KFIf3M-o-12" value="2." style="text;html=1;align=center;verticalAlign=middle;resizable=0;points=[];autosize=1;strokeColor=#A50040;fillColor=#d80073;fontColor=#ffffff;" vertex="1" parent="77e6c97f196da883-4">
          <mxGeometry x="130" y="135" width="30" height="30" as="geometry" />
        </mxCell>
        <mxCell id="VV6RDWOt5vz2KFIf3M-o-11" value="1." style="text;html=1;align=center;verticalAlign=middle;resizable=0;points=[];autosize=1;strokeColor=#2D7600;fillColor=#60a917;fontColor=#ffffff;" vertex="1" parent="77e6c97f196da883-4">
          <mxGeometry x="130" y="70" width="30" height="30" as="geometry" />
        </mxCell>
        <mxCell id="VV6RDWOt5vz2KFIf3M-o-15" value="PaymentApprover" style="swimlane;fontStyle=0;childLayout=stackLayout;horizontal=1;startSize=30;horizontalStack=0;resizeParent=1;resizeParentMax=0;resizeLast=0;collapsible=1;marginBottom=0;whiteSpace=wrap;html=1;" vertex="1" parent="77e6c97f196da883-4">
          <mxGeometry x="10" y="210" width="140" height="60" as="geometry" />
        </mxCell>
        <mxCell id="VV6RDWOt5vz2KFIf3M-o-32" value="checker" style="ellipse;whiteSpace=wrap;html=1;aspect=fixed;fillColor=#ffe6cc;strokeColor=#d79b00;" vertex="1" parent="77e6c97f196da883-4">
          <mxGeometry x="40" y="350" width="80" height="80" as="geometry" />
        </mxCell>
        <mxCell id="VV6RDWOt5vz2KFIf3M-o-34" value="1." style="text;html=1;align=center;verticalAlign=middle;resizable=0;points=[];autosize=1;strokeColor=#2D7600;fillColor=#60a917;fontColor=#ffffff;" vertex="1" parent="77e6c97f196da883-4">
          <mxGeometry x="130" y="365" width="30" height="30" as="geometry" />
        </mxCell>
        <mxCell id="VV6RDWOt5vz2KFIf3M-o-35" value="PaymentApprover" style="swimlane;fontStyle=0;childLayout=stackLayout;horizontal=1;startSize=30;horizontalStack=0;resizeParent=1;resizeParentMax=0;resizeLast=0;collapsible=1;marginBottom=0;whiteSpace=wrap;html=1;" vertex="1" parent="77e6c97f196da883-4">
          <mxGeometry x="10" y="505" width="140" height="60" as="geometry" />
        </mxCell>
        <mxCell id="VV6RDWOt5vz2KFIf3M-o-40" style="edgeStyle=orthogonalEdgeStyle;rounded=0;orthogonalLoop=1;jettySize=auto;html=1;exitX=1;exitY=0.5;exitDx=0;exitDy=0;entryX=0;entryY=0.5;entryDx=0;entryDy=0;" edge="1" source="VV6RDWOt5vz2KFIf3M-o-30" target="VV6RDWOt5vz2KFIf3M-o-31" parent="77e6c97f196da883-1">
          <mxGeometry relative="1" as="geometry" />
        </mxCell>
        <mxCell id="VV6RDWOt5vz2KFIf3M-o-41" style="edgeStyle=orthogonalEdgeStyle;rounded=0;orthogonalLoop=1;jettySize=auto;html=1;exitX=1;exitY=0.5;exitDx=0;exitDy=0;" edge="1" source="VV6RDWOt5vz2KFIf3M-o-31" target="VV6RDWOt5vz2KFIf3M-o-32" parent="77e6c97f196da883-1">
          <mxGeometry relative="1" as="geometry" />
        </mxCell>
        <mxCell id="VV6RDWOt5vz2KFIf3M-o-42" style="edgeStyle=orthogonalEdgeStyle;rounded=0;orthogonalLoop=1;jettySize=auto;html=1;exitX=1;exitY=0.5;exitDx=0;exitDy=0;entryX=0;entryY=0.5;entryDx=0;entryDy=0;fillColor=#60a917;strokeColor=#2D7600;" edge="1" source="VV6RDWOt5vz2KFIf3M-o-32" target="VV6RDWOt5vz2KFIf3M-o-36" parent="77e6c97f196da883-1">
          <mxGeometry relative="1" as="geometry" />
        </mxCell>
        <mxCell id="77e6c97f196da883-5" value="For Record" style="swimlane;html=1;startSize=20;" parent="77e6c97f196da883-1" vertex="1">
          <mxGeometry x="480" y="20" width="160" height="730" as="geometry" />
        </mxCell>
        <mxCell id="VV6RDWOt5vz2KFIf3M-o-4" value="recorder" style="rhombus;whiteSpace=wrap;html=1;fillColor=#dae8fc;strokeColor=#6c8ebf;" vertex="1" parent="77e6c97f196da883-5">
          <mxGeometry x="40" y="55" width="80" height="80" as="geometry" />
        </mxCell>
        <mxCell id="VV6RDWOt5vz2KFIf3M-o-21" value="PaymentApprover" style="swimlane;fontStyle=0;childLayout=stackLayout;horizontal=1;startSize=30;horizontalStack=0;resizeParent=1;resizeParentMax=0;resizeLast=0;collapsible=1;marginBottom=0;whiteSpace=wrap;html=1;" vertex="1" parent="77e6c97f196da883-5">
          <mxGeometry x="10" y="210" width="140" height="90" as="geometry" />
        </mxCell>
        <mxCell id="VV6RDWOt5vz2KFIf3M-o-22" value="checker" style="text;strokeColor=none;fillColor=none;align=left;verticalAlign=middle;spacingLeft=4;spacingRight=4;overflow=hidden;points=[[0,0.5],[1,0.5]];portConstraint=eastwest;rotatable=0;whiteSpace=wrap;html=1;" vertex="1" parent="VV6RDWOt5vz2KFIf3M-o-21">
          <mxGeometry y="30" width="140" height="30" as="geometry" />
        </mxCell>
        <mxCell id="VV6RDWOt5vz2KFIf3M-o-23" value="recorder1" style="text;strokeColor=none;fillColor=none;align=left;verticalAlign=middle;spacingLeft=4;spacingRight=4;overflow=hidden;points=[[0,0.5],[1,0.5]];portConstraint=eastwest;rotatable=0;whiteSpace=wrap;html=1;" vertex="1" parent="VV6RDWOt5vz2KFIf3M-o-21">
          <mxGeometry y="60" width="140" height="30" as="geometry" />
        </mxCell>
        <mxCell id="VV6RDWOt5vz2KFIf3M-o-29" value="" style="endArrow=none;html=1;rounded=0;" edge="1" parent="77e6c97f196da883-5">
          <mxGeometry width="50" height="50" relative="1" as="geometry">
            <mxPoint x="-480" y="320" as="sourcePoint" />
            <mxPoint x="160" y="320" as="targetPoint" />
          </mxGeometry>
        </mxCell>
        <mxCell id="VV6RDWOt5vz2KFIf3M-o-36" value="recorder" style="rhombus;whiteSpace=wrap;html=1;fillColor=#dae8fc;strokeColor=#6c8ebf;" vertex="1" parent="77e6c97f196da883-5">
          <mxGeometry x="40" y="350" width="80" height="80" as="geometry" />
        </mxCell>
        <mxCell id="VV6RDWOt5vz2KFIf3M-o-37" value="PaymentApprover" style="swimlane;fontStyle=0;childLayout=stackLayout;horizontal=1;startSize=30;horizontalStack=0;resizeParent=1;resizeParentMax=0;resizeLast=0;collapsible=1;marginBottom=0;whiteSpace=wrap;html=1;" vertex="1" parent="77e6c97f196da883-5">
          <mxGeometry x="10" y="505" width="140" height="90" as="geometry" />
        </mxCell>
        <mxCell id="VV6RDWOt5vz2KFIf3M-o-38" value="checker" style="text;strokeColor=none;fillColor=none;align=left;verticalAlign=middle;spacingLeft=4;spacingRight=4;overflow=hidden;points=[[0,0.5],[1,0.5]];portConstraint=eastwest;rotatable=0;whiteSpace=wrap;html=1;" vertex="1" parent="VV6RDWOt5vz2KFIf3M-o-37">
          <mxGeometry y="30" width="140" height="30" as="geometry" />
        </mxCell>
        <mxCell id="VV6RDWOt5vz2KFIf3M-o-39" value="recorder1" style="text;strokeColor=none;fillColor=none;align=left;verticalAlign=middle;spacingLeft=4;spacingRight=4;overflow=hidden;points=[[0,0.5],[1,0.5]];portConstraint=eastwest;rotatable=0;whiteSpace=wrap;html=1;" vertex="1" parent="VV6RDWOt5vz2KFIf3M-o-37">
          <mxGeometry y="60" width="140" height="30" as="geometry" />
        </mxCell>
        <mxCell id="VV6RDWOt5vz2KFIf3M-o-47" value="1." style="text;html=1;align=center;verticalAlign=middle;resizable=0;points=[];autosize=1;strokeColor=#2D7600;fillColor=#60a917;fontColor=#ffffff;" vertex="1" parent="77e6c97f196da883-5">
          <mxGeometry x="130" y="330" width="30" height="30" as="geometry" />
        </mxCell>
        <mxCell id="VV6RDWOt5vz2KFIf3M-o-48" value="2." style="text;html=1;align=center;verticalAlign=middle;resizable=0;points=[];autosize=1;strokeColor=#A50040;fillColor=#d80073;fontColor=#ffffff;" vertex="1" parent="77e6c97f196da883-5">
          <mxGeometry x="130" y="420" width="30" height="30" as="geometry" />
        </mxCell>
        <mxCell id="VV6RDWOt5vz2KFIf3M-o-2" style="edgeStyle=orthogonalEdgeStyle;rounded=0;orthogonalLoop=1;jettySize=auto;html=1;exitX=1;exitY=0.5;exitDx=0;exitDy=0;entryX=0;entryY=0.5;entryDx=0;entryDy=0;" edge="1" parent="77e6c97f196da883-1" source="77e6c97f196da883-8" target="VV6RDWOt5vz2KFIf3M-o-1">
          <mxGeometry relative="1" as="geometry" />
        </mxCell>
        <mxCell id="VV6RDWOt5vz2KFIf3M-o-5" style="edgeStyle=orthogonalEdgeStyle;rounded=0;orthogonalLoop=1;jettySize=auto;html=1;exitX=1;exitY=0.5;exitDx=0;exitDy=0;" edge="1" parent="77e6c97f196da883-1" source="VV6RDWOt5vz2KFIf3M-o-1" target="VV6RDWOt5vz2KFIf3M-o-3">
          <mxGeometry relative="1" as="geometry" />
        </mxCell>
        <mxCell id="VV6RDWOt5vz2KFIf3M-o-6" style="edgeStyle=orthogonalEdgeStyle;rounded=0;orthogonalLoop=1;jettySize=auto;html=1;exitX=1;exitY=0.5;exitDx=0;exitDy=0;entryX=0;entryY=0.5;entryDx=0;entryDy=0;fillColor=#60a917;strokeColor=#2D7600;" edge="1" parent="77e6c97f196da883-1" source="VV6RDWOt5vz2KFIf3M-o-3" target="VV6RDWOt5vz2KFIf3M-o-4">
          <mxGeometry relative="1" as="geometry" />
        </mxCell>
        <mxCell id="VV6RDWOt5vz2KFIf3M-o-7" style="edgeStyle=orthogonalEdgeStyle;rounded=0;orthogonalLoop=1;jettySize=auto;html=1;exitX=0.5;exitY=1;exitDx=0;exitDy=0;entryX=0.5;entryY=1;entryDx=0;entryDy=0;fillColor=#60a917;strokeColor=#2D7600;" edge="1" parent="77e6c97f196da883-1" source="VV6RDWOt5vz2KFIf3M-o-3" target="VV6RDWOt5vz2KFIf3M-o-4">
          <mxGeometry relative="1" as="geometry" />
        </mxCell>
        <mxCell id="VV6RDWOt5vz2KFIf3M-o-24" value="Done" style="swimlane;html=1;startSize=20;" vertex="1" parent="1">
          <mxGeometry x="990" y="60" width="160" height="730" as="geometry" />
        </mxCell>
        <mxCell id="VV6RDWOt5vz2KFIf3M-o-25" value="" style="rounded=1;whiteSpace=wrap;html=1;shadow=0;labelBackgroundColor=none;strokeWidth=1;fontFamily=Verdana;fontSize=8;align=center;fillColor=#d5e8d4;strokeColor=#82b366;" vertex="1" parent="VV6RDWOt5vz2KFIf3M-o-24">
          <mxGeometry x="30" y="65" width="100" height="60" as="geometry" />
        </mxCell>
        <mxCell id="VV6RDWOt5vz2KFIf3M-o-27" style="edgeStyle=orthogonalEdgeStyle;rounded=0;orthogonalLoop=1;jettySize=auto;html=1;exitX=1;exitY=0.5;exitDx=0;exitDy=0;" edge="1" parent="1" source="VV6RDWOt5vz2KFIf3M-o-4" target="VV6RDWOt5vz2KFIf3M-o-25">
          <mxGeometry relative="1" as="geometry" />
        </mxCell>
        <mxCell id="VV6RDWOt5vz2KFIf3M-o-44" value="recorder" style="rhombus;whiteSpace=wrap;html=1;fillColor=#dae8fc;strokeColor=#6c8ebf;" vertex="1" parent="1">
          <mxGeometry x="740" y="410" width="80" height="80" as="geometry" />
        </mxCell>
        <mxCell id="VV6RDWOt5vz2KFIf3M-o-45" style="edgeStyle=orthogonalEdgeStyle;rounded=0;orthogonalLoop=1;jettySize=auto;html=1;exitX=0.5;exitY=0;exitDx=0;exitDy=0;entryX=0.5;entryY=0;entryDx=0;entryDy=0;" edge="1" parent="1" source="VV6RDWOt5vz2KFIf3M-o-36" target="VV6RDWOt5vz2KFIf3M-o-44">
          <mxGeometry relative="1" as="geometry" />
        </mxCell>
        <mxCell id="VV6RDWOt5vz2KFIf3M-o-46" style="edgeStyle=orthogonalEdgeStyle;rounded=0;orthogonalLoop=1;jettySize=auto;html=1;exitX=0.5;exitY=1;exitDx=0;exitDy=0;entryX=0.5;entryY=1;entryDx=0;entryDy=0;" edge="1" parent="1" source="VV6RDWOt5vz2KFIf3M-o-36" target="VV6RDWOt5vz2KFIf3M-o-44">
          <mxGeometry relative="1" as="geometry" />
        </mxCell>
        <mxCell id="VV6RDWOt5vz2KFIf3M-o-49" value="PaymentApprover" style="swimlane;fontStyle=0;childLayout=stackLayout;horizontal=1;startSize=30;horizontalStack=0;resizeParent=1;resizeParentMax=0;resizeLast=0;collapsible=1;marginBottom=0;whiteSpace=wrap;html=1;" vertex="1" parent="1">
          <mxGeometry x="730" y="565" width="140" height="120" as="geometry" />
        </mxCell>
        <mxCell id="VV6RDWOt5vz2KFIf3M-o-50" value="checker" style="text;strokeColor=none;fillColor=none;align=left;verticalAlign=middle;spacingLeft=4;spacingRight=4;overflow=hidden;points=[[0,0.5],[1,0.5]];portConstraint=eastwest;rotatable=0;whiteSpace=wrap;html=1;" vertex="1" parent="VV6RDWOt5vz2KFIf3M-o-49">
          <mxGeometry y="30" width="140" height="30" as="geometry" />
        </mxCell>
        <mxCell id="VV6RDWOt5vz2KFIf3M-o-51" value="recorder1" style="text;strokeColor=none;fillColor=none;align=left;verticalAlign=middle;spacingLeft=4;spacingRight=4;overflow=hidden;points=[[0,0.5],[1,0.5]];portConstraint=eastwest;rotatable=0;whiteSpace=wrap;html=1;" vertex="1" parent="VV6RDWOt5vz2KFIf3M-o-49">
          <mxGeometry y="60" width="140" height="30" as="geometry" />
        </mxCell>
        <mxCell id="VV6RDWOt5vz2KFIf3M-o-52" value="recorder2" style="text;strokeColor=none;fillColor=none;align=left;verticalAlign=middle;spacingLeft=4;spacingRight=4;overflow=hidden;points=[[0,0.5],[1,0.5]];portConstraint=eastwest;rotatable=0;whiteSpace=wrap;html=1;" vertex="1" parent="VV6RDWOt5vz2KFIf3M-o-49">
          <mxGeometry y="90" width="140" height="30" as="geometry" />
        </mxCell>
      </root>
    </mxGraphModel>
  </diagram>
</mxfile>
